<svg width="104" height="105" viewBox="0 0 104 105" fill="none" xmlns="http://www.w3.org/2000/svg">
<g filter="url(#filter0_d_0_70)">
<rect x="24" y="12" width="56" height="56" rx="28" fill="#3D55F9"/>
</g>
<path d="M50.8086 40.0117H52.166C53.0189 39.9987 53.6895 39.7741 54.1777 39.3379C54.666 38.9017 54.9102 38.3125 54.9102 37.5703C54.9102 35.9036 54.0801 35.0703 52.4199 35.0703C51.6387 35.0703 51.0137 35.2949 50.5449 35.7441C50.0827 36.1868 49.8516 36.776 49.8516 37.5117H48.0449C48.0449 36.3854 48.4551 35.4512 49.2754 34.709C50.1022 33.9603 51.1504 33.5859 52.4199 33.5859C53.7611 33.5859 54.8125 33.9408 55.5742 34.6504C56.3359 35.36 56.7168 36.3464 56.7168 37.6094C56.7168 38.2279 56.515 38.8268 56.1113 39.4062C55.7142 39.9857 55.1706 40.4186 54.4805 40.7051C55.2617 40.9525 55.8639 41.3626 56.2871 41.9355C56.7168 42.5085 56.9316 43.2083 56.9316 44.0352C56.9316 45.3112 56.515 46.3236 55.6816 47.0723C54.8483 47.821 53.7643 48.1953 52.4297 48.1953C51.0951 48.1953 50.0078 47.834 49.168 47.1113C48.3346 46.3887 47.918 45.4349 47.918 44.25H49.7344C49.7344 44.9987 49.9785 45.5977 50.4668 46.0469C50.9551 46.4961 51.6094 46.7207 52.4297 46.7207C53.3021 46.7207 53.9694 46.4928 54.4316 46.0371C54.8939 45.5814 55.125 44.9271 55.125 44.0742C55.125 43.2474 54.8711 42.6126 54.3633 42.1699C53.8555 41.7272 53.123 41.4993 52.166 41.4863H50.8086V40.0117Z" fill="white"/>
<defs>
<filter id="filter0_d_0_70" x="0" y="0.5714" width="104" height="104" filterUnits="userSpaceOnUse" color-interpolation-filters="sRGB">
<feFlood flood-opacity="0" result="BackgroundImageFix"/>
<feColorMatrix in="SourceAlpha" type="matrix" values="0 0 0 0 0 0 0 0 0 0 0 0 0 0 0 0 0 0 127 0" result="hardAlpha"/>
<feOffset dy="12.5714"/>
<feGaussianBlur stdDeviation="12"/>
<feColorMatrix type="matrix" values="0 0 0 0 0.239216 0 0 0 0 0.333333 0 0 0 0 0.976471 0 0 0 0.2 0"/>
<feBlend mode="normal" in2="BackgroundImageFix" result="effect1_dropShadow_0_70"/>
<feBlend mode="normal" in="SourceGraphic" in2="effect1_dropShadow_0_70" result="shape"/>
</filter>
</defs>
</svg>
